<svg width="82" height="82" viewBox="0 0 82 82" fill="none" xmlns="http://www.w3.org/2000/svg">
<path fill-rule="evenodd" clip-rule="evenodd" d="M41.3258 1.28078C39.5708 1.28078 37.8876 1.97797 36.6466 3.21896C35.4056 4.45996 34.7085 6.14311 34.7085 7.89815V8.51506L34.7085 8.51761C34.7033 9.81023 34.3203 11.0731 33.6066 12.1508C32.8928 13.2286 31.8796 14.0741 30.6915 14.5833C30.6117 14.6174 30.5259 14.6351 30.4392 14.6351H30.2803C29.1023 15.1259 27.8065 15.2665 26.5488 15.0385C25.2457 14.8022 24.0432 14.181 23.0965 13.2549L23.0915 13.25L22.8738 13.0322C22.2592 12.417 21.5291 11.9286 20.7258 11.5956C19.9224 11.2626 19.0613 11.0912 18.1917 11.0912C17.3221 11.0912 16.461 11.2626 15.6577 11.5956C14.8543 11.9286 14.1245 12.4167 13.5099 13.032L13.5094 13.0325C12.8942 13.6471 12.4061 14.3769 12.0731 15.1802C11.74 15.9835 11.5686 16.8446 11.5686 17.7143C11.5686 18.5839 11.74 19.445 12.0731 20.2483C12.4061 21.0517 12.8942 21.7815 13.5094 22.3961L13.7324 22.619C14.6585 23.5658 15.2797 24.7682 15.5159 26.0713C15.751 27.3678 15.5943 28.7047 15.0661 29.9115C14.6057 31.1517 13.7846 32.2259 12.7083 32.9956C11.6266 33.7694 10.3371 34.1997 9.00749 34.2308L8.99251 34.231H8.66591C6.91088 34.231 5.22772 34.9282 3.98672 36.1692C2.74573 37.4102 2.04854 39.0933 2.04854 40.8484C2.04854 42.6034 2.74573 44.2866 3.98672 45.5276C5.22772 46.7686 6.91088 47.4657 8.66591 47.4657H9.28537C10.578 47.4709 11.8409 47.8539 12.9186 48.5676C13.9954 49.2807 14.8404 50.2929 15.3497 51.4796C15.8833 52.6904 16.0423 54.0332 15.8063 55.3351C15.57 56.6382 14.9488 57.8407 14.0227 58.7874L14.0177 58.7924L13.8 59.0101C13.1847 59.6247 12.6964 60.3548 12.3634 61.1581C12.0304 61.9614 11.859 62.8225 11.859 63.6922C11.859 64.5618 12.0304 65.4229 12.3634 66.2262C12.6964 67.0296 13.1845 67.7594 13.7997 68.374L13.8002 68.3745C14.4148 68.9897 15.1446 69.4778 15.948 69.8108C16.7513 70.1438 17.6124 70.3153 18.482 70.3153C19.3517 70.3153 20.2128 70.1438 21.0161 69.8108C21.8194 69.4778 22.5492 68.9897 23.1638 68.3745L23.3868 68.1515C24.3335 67.2254 25.536 66.6042 26.8391 66.368C28.1355 66.1329 29.4725 66.2896 30.6792 66.8178C31.9194 67.2782 32.9936 68.0993 33.7634 69.1756C34.5371 70.2573 34.9675 71.5468 34.9986 72.8764L34.9988 72.8914V73.218C34.9988 74.973 35.696 76.6562 36.937 77.8972C38.1779 79.1382 39.8611 79.8353 41.6161 79.8353C43.3712 79.8353 45.0543 79.1382 46.2953 77.8972C47.5363 76.6562 48.2335 74.973 48.2335 73.218V72.6011L48.2335 72.5985C48.2387 71.3059 48.6217 70.043 49.3354 68.9653C50.0484 67.8886 51.0605 67.0437 52.2471 66.5343C53.4579 66.0006 54.8008 65.8415 56.1029 66.0776C57.406 66.3139 58.6084 66.9351 59.5551 67.8612L59.5602 67.8661L59.7779 68.0839C60.3925 68.6992 61.1225 69.1875 61.9259 69.5205C62.7292 69.8535 63.5903 70.0249 64.4599 70.0249C65.3296 70.0249 66.1907 69.8535 66.994 69.5205C67.7973 69.1875 68.5271 68.6994 69.1417 68.0842L69.1422 68.0836C69.7575 67.4691 70.2456 66.7392 70.5786 65.9359C70.9116 65.1326 71.083 64.2715 71.083 63.4019C71.083 62.5322 70.9116 61.6711 70.5786 60.8678C70.2456 60.0645 69.7575 59.3346 69.1422 58.7201L68.9192 58.4971C67.9932 57.5504 67.372 56.3479 67.1357 55.0448C66.8996 53.7428 67.0587 52.3998 67.5924 51.189C68.1018 50.0024 68.9467 48.9904 70.0234 48.2773C71.1011 47.5636 72.364 47.1806 73.6566 47.1754L73.6591 47.1754L73.9857 47.1754C75.7408 47.1754 77.4239 46.4782 78.6649 45.2372C79.9059 43.9963 80.6031 42.3131 80.6031 40.5581C80.6031 38.803 79.9059 37.1199 78.6649 35.8789C77.4239 34.6379 75.7408 33.9407 73.9857 33.9407H73.3688L73.3663 33.9407C72.0737 33.9355 70.8108 33.5525 69.7331 32.8388C68.6553 32.1251 67.8098 31.1118 67.3006 29.9237C67.2664 29.844 67.2488 29.7582 67.2488 29.6714V29.5126C66.758 28.3345 66.6174 27.0387 66.8454 25.781C67.0817 24.4779 67.7029 23.2755 68.629 22.3288L68.6339 22.3237L68.8517 22.106C69.4669 21.4914 69.9553 20.7613 70.2883 19.958C70.6213 19.1547 70.7927 18.2936 70.7927 17.424C70.7927 16.5543 70.6213 15.6932 70.2883 14.8899C69.9553 14.0866 69.4672 13.3567 68.8519 12.7422L68.8514 12.7417C68.2368 12.1264 67.507 11.6383 66.7037 11.3053C65.9003 10.9723 65.0392 10.8009 64.1696 10.8009C63.3 10.8009 62.4389 10.9723 61.6356 11.3053C60.8322 11.6383 60.1024 12.1264 59.4878 12.7417L59.2649 12.9646C58.3181 13.8907 57.1157 14.5119 55.8126 14.7482C54.5106 14.9842 53.1678 14.8252 51.9571 14.2916C50.7703 13.7823 49.7582 12.9373 49.0451 11.8605C48.3314 10.7828 47.9484 9.51992 47.9432 8.2273L47.9432 8.22475V7.89815C47.9432 6.14311 47.246 4.45996 46.005 3.21896C44.764 1.97797 43.0809 1.28078 41.3258 1.28078ZM35.741 2.31331C37.2222 0.832124 39.2311 0 41.3258 0C43.4205 0 45.4295 0.832124 46.9107 2.31331C48.3919 3.7945 49.224 5.80343 49.224 7.89815L49.224 8.22219C49.224 8.22259 49.224 8.22299 49.224 8.22339C49.2284 9.26581 49.5373 10.2842 50.1129 11.1534C50.6887 12.0228 51.5062 12.7049 52.4647 13.1157L52.471 13.1185C53.4485 13.5498 54.5328 13.6786 55.5841 13.4879C56.6343 13.2975 57.6034 12.7972 58.3668 12.0514C58.3676 12.0506 58.3684 12.0498 58.3692 12.049L58.5817 11.8365C58.5818 11.8364 58.5816 11.8366 58.5817 11.8365C59.3151 11.1023 60.1864 10.5196 61.1451 10.1222C62.1039 9.72468 63.1317 9.5201 64.1696 9.5201C65.2076 9.5201 66.2353 9.72468 67.1941 10.1222C68.1527 10.5195 69.0236 11.1019 69.757 11.836C70.4914 12.5695 71.074 13.4406 71.4714 14.3994C71.8689 15.3583 72.0735 16.386 72.0735 17.424C72.0735 18.4619 71.8689 19.4897 71.4714 20.4485C71.074 21.4073 70.4914 22.2784 69.757 23.0119L69.5445 23.2244C69.5437 23.2252 69.5429 23.226 69.5421 23.2269C68.7963 23.9903 68.296 24.9594 68.1056 26.0095C67.915 27.0608 68.0437 28.1451 68.4751 29.1225C68.511 29.204 68.5296 29.2921 68.5296 29.3811V29.5361C68.9448 30.4442 69.6063 31.2187 70.4402 31.771C71.3094 32.3465 72.3278 32.6555 73.3702 32.6599H73.9857C76.0805 32.6599 78.0894 33.492 79.5706 34.9732C81.0518 36.4544 81.8839 38.4633 81.8839 40.5581C81.8839 42.6528 81.0518 44.6617 79.5706 46.1429C78.0894 47.6241 76.0805 48.4562 73.9857 48.4562L73.6617 48.4562C73.6613 48.4562 73.6609 48.4562 73.6605 48.4562C72.6181 48.4606 71.5997 48.7696 70.7305 49.3452C69.8611 49.921 69.179 50.7385 68.7681 51.697L68.7654 51.7033C68.334 52.6807 68.2053 53.765 68.3959 54.8163C68.5863 55.8664 69.0866 56.8355 69.8323 57.5988C69.8331 57.5997 69.834 57.6006 69.8348 57.6015L70.0474 57.8139C70.0475 57.814 70.0473 57.8138 70.0474 57.8139C70.7816 58.5474 71.3643 59.4186 71.7617 60.3773C72.1592 61.3362 72.3638 62.3639 72.3638 63.4019C72.3638 64.4398 72.1592 65.4676 71.7617 66.4264C71.3643 67.3851 70.7818 68.2561 70.0476 68.9895C69.3142 69.7238 68.4432 70.3062 67.4845 70.7037C66.5256 71.1011 65.4979 71.3057 64.4599 71.3057C63.422 71.3057 62.3942 71.1011 61.4354 70.7037C60.4767 70.3062 59.6057 69.7238 58.8722 68.9895C58.8722 68.9895 58.8723 68.9896 58.8722 68.9895L58.6595 68.7768C58.6587 68.7759 58.6578 68.7751 58.6569 68.7742C57.8935 68.0285 56.9245 67.5283 55.8744 67.3379C54.8231 67.1472 53.7388 67.2759 52.7613 67.7073L52.7551 67.7101C51.7965 68.1209 50.9791 68.803 50.4032 69.6725C49.8277 70.5416 49.5187 71.56 49.5143 72.6024C49.5143 72.6028 49.5143 72.6032 49.5143 72.6036L49.5143 73.218C49.5143 75.3127 48.6822 77.3216 47.201 78.8028C45.7198 80.284 43.7109 81.1161 41.6161 81.1161C39.5214 81.1161 37.5125 80.284 36.0313 78.8028C34.5501 77.3216 33.718 75.3127 33.718 73.218V72.899C33.6915 71.829 33.3444 70.7914 32.7217 69.9206C32.0975 69.0479 31.2252 68.3832 30.2181 68.0128C30.2113 68.0103 30.2046 68.0077 30.1978 68.0049C30.1921 68.0026 30.1863 68.0002 30.1806 67.9976C29.2032 67.5662 28.1189 67.4376 27.0676 67.6282C26.0174 67.8186 25.0483 68.3189 24.2849 69.0646C24.2841 69.0655 24.2833 69.0663 24.2824 69.0671L24.07 69.2796C23.3364 70.014 22.4654 70.5965 21.5065 70.994C20.5477 71.3914 19.52 71.596 18.482 71.596C17.4441 71.596 16.4163 71.3914 15.4575 70.994C14.4987 70.5965 13.6276 70.014 12.8941 69.2796C12.16 68.5462 11.5776 67.6753 11.1802 66.7167C10.7828 65.7579 10.5782 64.7301 10.5782 63.6922C10.5782 62.6542 10.7828 61.6265 11.1802 60.6676C11.5776 59.7089 12.1601 58.838 12.8943 58.1045C12.8944 58.1044 12.8943 58.1046 12.8943 58.1045L13.1071 57.8918C13.1079 57.891 13.1087 57.8901 13.1095 57.8893C13.8553 57.1259 14.3556 56.1568 14.546 55.1066C14.7366 54.0553 14.608 52.971 14.1766 51.9936L14.1738 51.9873C13.763 51.0288 13.0809 50.2113 12.2114 49.6355C11.3423 49.0599 10.3239 48.7509 9.28146 48.7465C9.28106 48.7465 9.28066 48.7465 9.28027 48.7465L8.66591 48.7465C6.57119 48.7465 4.56227 47.9144 3.08108 46.4332C1.59989 44.952 0.767761 42.9431 0.767761 40.8484C0.767761 38.7537 1.59989 36.7447 3.08108 35.2635C4.56227 33.7823 6.57119 32.9502 8.66591 32.9502H8.98484C10.0549 32.9237 11.0925 32.5767 11.9632 31.9539C12.836 31.3297 13.5007 30.4574 13.8711 29.4504C13.8757 29.4377 13.8808 29.4252 13.8862 29.4129C14.3176 28.4354 14.4463 27.3511 14.2557 26.2998C14.0653 25.2497 13.565 24.2805 12.8192 23.5171L12.6043 23.3022C11.8699 22.5687 11.2874 21.6976 10.8899 20.7388C10.4924 19.78 10.2879 18.7522 10.2879 17.7143C10.2879 16.6763 10.4924 15.6486 10.8899 14.6897C11.2874 13.7309 11.8699 12.8599 12.6043 12.1263C13.3377 11.3922 14.2086 10.8098 15.1672 10.4125C16.126 10.015 17.1538 9.81041 18.1917 9.81041C19.2297 9.81041 20.2574 10.015 21.2162 10.4125C22.1749 10.8099 23.0459 11.3924 23.7794 12.1266C23.7795 12.1267 23.7793 12.1265 23.7794 12.1266L23.9946 12.3418C24.758 13.0876 25.7271 13.5878 26.7773 13.7783C27.8286 13.9689 28.9128 13.8402 29.8903 13.4088C29.9718 13.3728 30.0598 13.3543 30.1489 13.3543H30.3039C31.2119 12.9391 31.9865 12.2776 32.5387 11.4437C33.1143 10.5745 33.4233 9.55612 33.4277 8.5137V7.89815C33.4277 5.80343 34.2598 3.7945 35.741 2.31331Z" fill="black"/>
<path fill-rule="evenodd" clip-rule="evenodd" d="M41.0064 30.0194C35.3624 30.0194 30.7871 34.5947 30.7871 40.2387C30.7871 45.8827 35.3624 50.4581 41.0064 50.4581C46.6504 50.4581 51.2258 45.8827 51.2258 40.2387C51.2258 34.5947 46.6504 30.0194 41.0064 30.0194ZM29.5096 40.2387C29.5096 33.8892 34.6569 28.7419 41.0064 28.7419C47.3559 28.7419 52.5032 33.8892 52.5032 40.2387C52.5032 46.5882 47.3559 51.7355 41.0064 51.7355C34.6569 51.7355 29.5096 46.5882 29.5096 40.2387Z" fill="black"/>
</svg>
