<svg width="72" height="80" viewBox="0 0 72 80" fill="none" xmlns="http://www.w3.org/2000/svg">
<g clip-path="url(#clip0_166612_4132)">
<path fill-rule="evenodd" clip-rule="evenodd" d="M18.6783 9.29406C18.8397 9.01291 19.1975 8.91642 19.4774 9.07856L53.707 28.9031C53.9869 29.0652 54.083 29.4245 53.9216 29.7057C53.7601 29.9868 53.4023 30.0833 53.1224 29.9212L18.8928 10.0967C18.6129 9.93457 18.5168 9.57522 18.6783 9.29406Z" fill="black"/>
<path fill-rule="evenodd" clip-rule="evenodd" d="M32.1011 1.12491C33.3778 0.387964 34.8259 0 36.2999 0C37.7739 0 39.222 0.387964 40.4987 1.12491C40.4991 1.12515 40.4995 1.12538 40.4999 1.12561L67.7999 16.7288C69.0756 17.4654 70.1352 18.5247 70.8724 19.8003C71.6096 21.0758 71.9984 22.5229 71.9999 23.9962V55.2038C71.9984 56.6771 71.6096 58.1241 70.8724 59.3997C70.1352 60.6753 69.0756 61.7346 67.7999 62.4712L67.7976 62.4726L40.4999 78.0744C40.4997 78.0745 40.4995 78.0746 40.4992 78.0748C39.2224 78.8119 37.7742 79.2 36.2999 79.2C34.8257 79.2 33.3774 78.8119 32.1006 78.0748C32.1004 78.0746 32.1001 78.0745 32.0999 78.0744L4.80223 62.4726L4.79991 62.4712C3.52422 61.7346 2.46463 60.6753 1.72745 59.3997C0.990274 58.1241 0.601425 56.6771 0.599915 55.2038V23.9962C0.601425 22.5229 0.990274 21.0758 1.72745 19.8003C2.46463 18.5247 3.52422 17.4654 4.79991 16.7288L4.80223 16.7274L32.0999 1.12561C32.1003 1.12538 32.1007 1.12515 32.1011 1.12491ZM36.2999 1.20024C35.036 1.20024 33.7944 1.53299 32.6999 2.16505L32.6976 2.16638L5.39991 17.7682C5.39951 17.7684 5.3991 17.7687 5.3987 17.7689C4.30579 18.4003 3.39801 19.308 2.76638 20.4009C2.13456 21.4942 1.80126 22.7344 1.79991 23.9972V55.2028C1.80126 56.4656 2.13456 57.7058 2.76638 58.7991C3.39797 59.892 4.30568 60.7996 5.39851 61.431C5.39898 61.4313 5.39945 61.4315 5.39991 61.4318L32.6999 77.0349C33.7944 77.667 35.036 77.9998 36.2999 77.9998C37.5638 77.9998 38.8054 77.667 39.8999 77.0349L39.9022 77.0336L67.1999 61.4318C67.2004 61.4315 67.2008 61.4313 67.2013 61.431C68.2941 60.7996 69.2019 59.892 69.8335 58.7991C70.4653 57.7057 70.7986 56.4654 70.7999 55.2025V23.9975C70.7986 22.7346 70.4653 21.4943 69.8335 20.4009C69.2018 19.308 68.294 18.4003 67.2011 17.7689C67.2007 17.7687 67.2003 17.7684 67.1999 17.7682L39.9022 2.16638L39.8999 2.16505C38.8054 1.53299 37.5638 1.20024 36.2999 1.20024Z" fill="black"/>
<path fill-rule="evenodd" clip-rule="evenodd" d="M1.87956 20.0925C2.04334 19.8125 2.40564 19.7168 2.68878 19.8787L35.9999 38.9374L69.311 19.8787C69.5941 19.7168 69.9564 19.8125 70.1202 20.0925C70.284 20.3725 70.1872 20.7309 69.9041 20.8929L36.2964 40.1212C36.113 40.2262 35.8868 40.2262 35.7033 40.1212L2.09566 20.8929C1.81253 20.7309 1.71578 20.3725 1.87956 20.0925Z" fill="black"/>
<path fill-rule="evenodd" clip-rule="evenodd" d="M35.9998 39C36.3312 39 36.5998 39.2626 36.5998 39.5865V78.0135C36.5998 78.3374 36.3312 78.6 35.9998 78.6C35.6685 78.6 35.3998 78.3374 35.3998 78.0135V39.5865C35.3998 39.2626 35.6685 39 35.9998 39Z" fill="black"/>
</g>
<defs>
<clipPath id="clip0_166612_4132">
<rect width="71.4" height="79.2" fill="white" transform="translate(0.599915)"/>
</clipPath>
</defs>
</svg>
